<?xml version="1.0" encoding="utf-8"?>
<svg version="1.0" xmlns="http://www.w3.org/2000/svg" width="198px" height="186px" viewBox="0 0 198 186" preserveAspectRatio="xMidYMid meet" shape-rendering="geometricPrecision">
 <g fill="#2D1E17">
  <path d="M87.56 181.93 c-4.44 -2.03 -4.91 -2.31 -6.71 -4.11 -1.16 -1.18 -1.88 -1.76 -2.16 -1.76 -0.22 0 -1.09 0.13 -1.91 0.28 -5.59 1.01 -11.40 -0.56 -17.79 -4.82 -8.83 -5.87 -15.09 -14.44 -16.52 -22.59 -0.36 -2.03 -0.36 -6.09 0 -8.72 0.66 -4.95 0.56 -6.71 -0.52 -9.32 -0.69 -1.71 -1.95 -3.02 -3.79 -3.99 -3.21 -1.67 -5.18 -1.69 -6.99 -0.06 -1.26 1.13 -1.99 2.72 -3.83 8.23 -2.12 6.30 -4.07 10.93 -6.21 14.64 -0.41 0.73 -1.86 3.08 -3.19 5.25 -4.48 7.20 -6.17 11.64 -5.89 15.43 -0.09 1.29 -0.08 1.42 -0.34 1.84 -0.54 0.54 -0.68 0.54 -1.24 0.09 -0.36 -0.28 -0.45 -0.56 -0.51 -1.63 -0.22 -4.01 1.89 -9.77 5.98 -16.20 5.04 -7.93 6.53 -11.04 9.66 -20.29 0.86 -2.55 1.86 -5.21 2.21 -5.93 0.86 -1.73 2.25 -3.21 3.62 -3.88 3.60 -1.80 9.66 0.79 11.91 5.06 1.46 2.83 1.71 5.10 1.11 10.27 -0.47 3.99 -0.51 6.39 -0.09 8.77 1.01 5.85 4.07 11.16 9.47 16.39 5.36 5.19 11.74 8.83 16.91 9.66 1.59 0.26 5.40 0.17 6.51 -0.17 l0.68 -0.21 -0.02 -1.74 c0 -1.59 0.06 -1.84 0.62 -3 1.84 -3.73 5.87 -5.83 8.40 -4.35 1.50 0.88 1.99 2.87 1.13 4.69 -0.58 1.26 -2.46 2.98 -4.39 4.03 -2.40 1.31 -2.66 1.48 -2.66 1.69 0 0.38 2.21 2.34 3.39 3.06 0.66 0.38 1.88 0.96 2.70 1.26 2.08 0.79 2.44 0.98 2.49 1.46 0.13 0.94 -0.75 1.22 -2.03 0.66z m-5.51 -9.34 c2.33 -1.16 3.67 -2.27 4.28 -3.51 0.43 -0.88 0.47 -1.09 0.28 -1.61 -0.32 -0.92 -1.09 -1.26 -2.23 -0.98 -2.66 0.64 -4.88 3.66 -4.72 6.43 0.06 0.71 0.43 0.66 2.40 -0.34z"/>
  <path d="M95.91 177.86 c-0.26 -0.41 -0.26 -0.52 0.08 -1.41 0.71 -1.80 2.21 -3.99 4.59 -6.77 3.69 -4.28 2.68 -7.26 -2.89 -8.51 -1.24 -0.28 -2.14 -0.32 -7.50 -0.21 -5.79 0.13 -6.19 0.11 -8.06 -0.28 -5.40 -1.11 -8.14 -3.26 -16.33 -12.84 -7.46 -8.74 -11.79 -14.57 -15.26 -20.63 -2.29 -3.99 -3.15 -6.49 -3.15 -9.28 -0.02 -2.78 0.82 -5.03 3.22 -8.59 2.33 -3.45 3.54 -6.54 3.97 -10.03 0.38 -3.09 -0.13 -7.50 -1.27 -10.80 -1.56 -4.52 -4.72 -9.45 -7.71 -11.93 -1.69 -1.42 -2.42 -1.78 -3.66 -1.78 -1.26 0 -2.10 0.51 -2.76 1.69 -0.45 0.81 -0.47 0.94 -0.41 3.81 0.06 3.22 -0.08 3.77 -1.05 4.29 -1.26 0.66 -2.89 -0.04 -4.37 -1.86 -1.35 -1.67 -1.59 -1.58 -0.92 0.39 0.66 1.91 1.56 3.36 3 4.82 1.65 1.67 3.26 2.55 7.46 4.11 1.48 0.54 3.21 1.33 3.83 1.73 3.77 2.44 5.29 6.49 3.73 9.99 -0.45 1.03 -2.06 2.78 -3.17 3.41 -1.16 0.68 -2.91 1.18 -4.13 1.18 -2.87 0 -5.68 -1.56 -9.49 -5.23 -4.93 -4.76 -9.21 -10.84 -12.71 -18 -4.29 -8.83 -5.96 -14.68 -5.96 -20.94 0 -4.54 0.90 -7.41 2.89 -9.34 2.19 -2.14 5.03 -2.81 8.25 -1.99 3.08 0.79 5.31 2.33 8.85 6.11 5.04 5.42 6.26 6.53 8.18 7.46 2.74 1.37 4.57 1.52 7.43 0.64 1.89 -0.56 5.49 -2.34 8.87 -4.37 5.29 -3.19 7.52 -3.99 10.48 -3.79 3.51 0.24 5.81 1.35 13.50 6.51 4.50 3.02 8.79 5.70 10.46 6.54 l1.18 0.60 -0.32 -0.60 -0.30 -0.60 0.92 0.51 c0.49 0.28 1.84 0.92 2.96 1.41 8.19 3.58 19.78 5.31 24.75 3.71 2.49 -0.82 5.06 -2.63 5.83 -4.11 0.38 -0.73 0.15 -1.31 -0.71 -1.84 -0.94 -0.56 -1.86 -0.47 -5.06 0.54 -3.92 1.24 -5.10 1.41 -8.83 1.27 -5.42 -0.17 -8.94 -1.33 -11.34 -3.71 -0.69 -0.68 -1.11 -0.92 -1.91 -1.11 -1.65 -0.38 -3.53 -1.11 -5.47 -2.10 -1.63 -0.82 -1.82 -0.98 -1.65 -1.29 0.17 -0.30 0.02 -0.47 -1.16 -1.24 -2.66 -1.76 -2.17 -2.83 1.74 -3.81 2.98 -0.73 6.88 -2.19 7.57 -2.83 0.75 -0.69 2.91 -1.48 4.03 -1.48 0.49 0 1.44 -0.21 2.12 -0.47 0.69 -0.24 2.19 -0.71 3.36 -1.03 11.23 -2.98 18.26 -0.09 23.59 9.75 0.47 0.86 0.77 1.22 1.01 1.22 0.30 0 0.51 0.36 0.98 1.69 0.34 0.94 0.84 2.63 1.13 3.75 0.47 1.86 0.52 2.40 0.54 5.34 0 2.91 -0.04 3.39 -0.39 4.24 -0.84 2.04 -2.27 3.73 -6.92 8.14 -1.93 1.84 -2.19 2.16 -3.83 4.97 -0.98 1.65 -2.31 3.81 -2.94 4.80 -1.01 1.56 -1.24 1.80 -1.61 1.73 -0.36 -0.08 -0.68 0.19 -1.69 1.41 -5.34 6.39 -14.23 10.59 -22.27 10.57 -4.29 -0.02 -6.84 -0.71 -13.11 -3.54 -1.69 -0.77 -3.77 -1.59 -4.61 -1.84 -1.80 -0.51 -5.04 -0.96 -5.72 -0.79 -0.60 0.15 -2.57 1.88 -4.20 3.67 -3.24 3.56 -5.81 8.68 -6.79 13.50 -0.47 2.33 -0.30 5.61 0.38 7.61 1.69 5.01 5.81 9.56 13.99 15.41 7.71 5.51 15.75 10.20 23.91 13.93 2.06 0.94 6.41 3.02 9.66 4.59 3.24 1.58 6.68 3.13 7.59 3.45 7.88 2.66 19.37 2.40 25.03 -0.56 1.88 -0.98 2.98 -1.95 4.11 -3.66 1.20 -1.78 1.80 -3.62 1.80 -5.51 0 -1.67 -0.30 -2.61 -1.09 -3.51 -1.07 -1.22 -1.65 -1.37 -5.57 -1.37 -4.93 0 -6.81 -0.54 -8.44 -2.40 -1.27 -1.44 -1.61 -3.15 -0.96 -4.99 l0.34 -0.99 -2.49 -1.54 c-1.39 -0.86 -2.64 -1.73 -2.79 -1.95 -0.15 -0.22 -0.28 -0.73 -0.28 -1.13 0 -1.20 1.14 -2.03 3.15 -2.31 0.92 -0.11 0.98 -0.15 0.98 -0.68 0 -0.51 -0.06 -0.56 -0.45 -0.45 -2.21 0.56 -5.68 0.56 -6.97 0.02 -1.26 -0.52 -1.27 -1.65 -0.04 -2.61 1.69 -1.27 13.24 -7.41 16.09 -8.51 0.77 -0.30 2.94 -0.99 4.84 -1.54 5.16 -1.46 6.19 -2.03 7.09 -3.88 0.54 -1.07 0.54 -1.14 0.54 -4.37 0 -4.31 -0.09 -4.50 -3.28 -6.11 l-1.41 -0.71 -2.34 0.04 c-2.47 0.06 -3.49 -0.11 -5.10 -0.88 -2.68 -1.27 -3.77 -4.09 -2.55 -6.49 1.42 -2.78 5.01 -4.37 9.43 -4.16 2.72 0.13 4.46 0.62 7.57 2.10 2.19 1.05 2.70 1.22 3.58 1.22 1.76 -0.02 3.34 -0.96 4.18 -2.53 0.34 -0.62 0.41 -1.05 0.39 -2.44 0 -2.31 -0.43 -3.45 -3.69 -10.01 -1.46 -2.94 -2.98 -6.22 -3.38 -7.29 -1.37 -3.75 -2.44 -8.57 -3.24 -14.66 -0.39 -2.92 -0.45 -10.22 -0.09 -12.56 0.22 -1.46 0.21 -1.61 -0.08 -1.78 -1.18 -0.69 -3.75 -2.64 -4.91 -3.73 -3.04 -2.83 -6.79 -8.64 -8.98 -13.93 -2.72 -6.53 -3.34 -11.42 -2.61 -20.23 0.38 -4.44 0.24 -6.88 -0.49 -8.79 -0.56 -1.46 -0.41 -2.34 0.39 -2.34 0.45 0 1.03 0.71 3.32 4.03 7.18 10.43 10.97 18.15 12.32 25.13 0.51 2.68 0.69 4.41 0.96 9.66 0.32 6.28 0.45 7.88 0.66 7.88 0.08 0 0.30 -0.62 0.47 -1.37 0.99 -4.07 2.89 -7.97 5.19 -10.67 l0.90 -1.05 0 -1.44 c0 -2.68 0.86 -5.81 2.53 -9.19 1.29 -2.59 2.92 -4.76 5.29 -7.03 3.21 -3.08 5.63 -4.44 11.21 -6.38 1.86 -0.64 4.41 -1.63 5.68 -2.21 2.27 -1.01 6.41 -3.32 8.53 -4.76 0.60 -0.41 1.39 -0.79 1.73 -0.84 l0.66 -0.11 0 4.37 c0 3.45 -0.06 4.41 -0.26 4.57 -0.13 0.11 -0.52 1.05 -0.88 2.08 -0.75 2.23 -2.57 6.02 -3.83 7.97 -2.29 3.58 -5.79 7.28 -8.81 9.26 -4.99 3.30 -11.68 5.18 -18.62 5.18 l-2.38 0 -1.03 1.44 c-2.61 3.66 -4.33 8.48 -5.10 14.21 -0.39 3.04 -0.24 13.43 0.19 13.41 0.08 0 0.34 -0.36 0.60 -0.77 0.56 -0.92 3.11 -3.47 4.50 -4.50 1.95 -1.46 4.80 -2.68 7.61 -3.26 0.75 -0.15 2.78 -0.41 4.52 -0.56 6.96 -0.62 10.01 -1.16 13.97 -2.47 3.81 -1.26 4.11 -1.07 3.62 2.33 -1.50 10.01 -5.91 16.01 -12.84 17.42 -3.26 0.66 -6.17 0.09 -12.56 -2.42 -4.57 -1.82 -5.96 -2.21 -7.69 -2.27 -1.42 -0.02 -1.37 -0.32 -0.62 3.08 1.13 5.14 2.03 7.52 5.32 14.16 3.36 6.77 3.62 7.56 3.64 10.50 0 2.08 -0.04 2.33 -0.51 3.21 -0.68 1.29 -2.33 2.78 -3.56 3.19 -2.01 0.69 -3.96 0.34 -7.18 -1.29 -1.91 -0.96 -3.43 -1.42 -5.29 -1.61 -5.25 -0.51 -9.56 1.86 -8.98 4.95 0.28 1.46 1.97 2.59 4.39 2.94 1.71 0.24 2.57 0.11 2.38 -0.38 -1.22 -2.89 0.92 -5.68 4.35 -5.70 2.70 -0.02 4.33 1.42 3.83 3.38 -0.26 0.98 -1.52 2.36 -2.78 3.08 l-1.01 0.56 1.16 0.69 c1.39 0.81 2.33 1.99 2.63 3.30 0.13 0.58 0.19 2.17 0.13 4.22 -0.08 3.66 -0.24 4.33 -1.58 5.94 l-0.66 0.81 0.43 0.17 c0.41 0.15 0.39 0.19 -0.51 0.75 -1.26 0.79 -3.26 1.54 -6.28 2.33 -1.39 0.38 -3.11 0.88 -3.81 1.16 -1.54 0.58 -5.55 2.51 -7.95 3.83 -1.59 0.86 -2.10 1.01 -1.52 0.43 0.11 -0.11 0.17 -0.28 0.09 -0.34 -0.17 -0.17 -6.56 3.30 -6.81 3.69 -0.15 0.24 2.47 0.21 4.16 -0.04 1.14 -0.17 1.46 -0.30 1.52 -0.58 0.06 -0.19 0.32 -0.39 0.60 -0.45 0.26 -0.08 2.27 -0.56 4.43 -1.11 7.72 -1.97 12.66 -2.70 18.99 -2.85 3.75 -0.09 4.16 -0.08 4.16 0.19 0 0.19 0.22 0.36 0.52 0.43 0.75 0.19 1.35 0.81 1.35 1.41 0 0.77 -1.03 3.56 -2.10 5.70 -1.29 2.55 -2.55 4.37 -4.35 6.24 -1.71 1.78 -3.22 2.78 -5.46 3.53 -1.39 0.49 -1.73 0.52 -4.41 0.52 -3.51 0.02 -5.18 -0.30 -8.16 -1.50 -1.14 -0.45 -2.21 -0.82 -2.38 -0.82 -0.39 0 -0.60 0.60 -0.58 1.71 0.02 1.07 0.41 1.84 1.31 2.59 1.26 1.03 2.12 1.20 6.53 1.22 3.83 0.02 3.97 0.04 4.97 0.51 1.50 0.69 2.16 1.35 2.85 2.76 0.58 1.18 0.62 1.35 0.62 3.32 0 3.47 -1.07 5.94 -3.66 8.53 -1.58 1.58 -3.39 2.64 -5.91 3.45 -6.41 2.06 -17.01 1.86 -23.64 -0.47 -0.92 -0.32 -4.41 -1.91 -7.76 -3.54 -7.31 -3.54 -8.64 -4.16 -8.77 -4.03 -0.06 0.06 0.04 0.24 0.21 0.43 0.68 0.75 1.14 2.16 1.13 3.47 0 1.73 -0.82 3.36 -3.04 6 -1.95 2.31 -2.85 3.64 -3.62 5.38 -0.30 0.66 -0.66 1.27 -0.77 1.35 -0.41 0.26 -0.86 0.15 -1.16 -0.30z m0.28 -19.86 c-11.76 -6.26 -22.03 -13.39 -27.38 -19.01 -1.63 -1.71 -3.53 -4.29 -4.37 -5.96 -0.73 -1.46 -1.42 -3.88 -1.63 -5.72 -0.79 -6.97 3.64 -16.73 10.03 -22.09 1.67 -1.39 1.69 -1.42 2.01 -2.66 0.43 -1.73 1.13 -3.32 2.44 -5.63 3.99 -6.92 7.52 -10.99 11.14 -12.81 3 -1.50 6.97 -1.52 13.16 -0.04 2.36 0.56 2.44 0.56 1.99 0.08 -0.36 -0.39 -0.36 -0.41 0.02 -0.30 1.24 0.38 5.03 1.37 6.97 1.82 7.09 1.69 13.03 2.06 16.54 1.03 1.11 -0.34 2.72 -1.63 5.31 -4.28 3.53 -3.58 4.09 -5.32 3.17 -9.84 -1.11 -5.34 -3.56 -10.16 -6.94 -13.56 -1.35 -1.37 -1.89 -1.76 -3.41 -2.49 -2.49 -1.20 -3.97 -1.50 -6.92 -1.33 -1.27 0.06 -2.89 0.22 -3.56 0.38 -1.41 0.30 -5.36 1.48 -6.24 1.86 -0.58 0.26 -0.56 0.26 0.54 0.17 2.27 -0.21 4.69 0.51 5.96 1.74 0.96 0.94 1.29 1.67 1.39 3.17 0.21 3.22 -1.97 5.21 -6.60 5.98 l-1.33 0.22 1.50 0.41 c3.83 1.03 7.09 0.96 10.88 -0.22 3.32 -1.05 4.28 -1.24 6.04 -1.24 2.42 0 3.79 0.58 4.74 2.01 0.39 0.56 0.49 0.96 0.54 2.23 0.06 1.35 0 1.69 -0.43 2.61 -0.90 1.99 -3.71 4.24 -6.43 5.14 -2.33 0.79 -4.39 1.01 -7.93 0.90 -4.99 -0.17 -9.75 -0.92 -14.63 -2.33 -4.13 -1.16 -6.26 -2.10 -5.68 -2.46 0.15 -0.09 -0.69 -0.60 -2.16 -1.33 -3.43 -1.71 -5.25 -2.81 -11.66 -7.05 -9.13 -6.04 -10.39 -6.66 -13.84 -6.66 -2.78 0 -4.07 0.47 -8.53 3.13 -9.54 5.66 -13.33 6.56 -18.17 4.31 -1.95 -0.90 -3.41 -2.10 -5.83 -4.71 -7.05 -7.63 -9.21 -9.13 -13.16 -9.19 -1.46 -0.02 -1.84 0.06 -2.76 0.49 -1.95 0.92 -3.09 2.40 -3.84 5.04 -0.52 1.86 -0.47 7.63 0.09 10.22 1.78 8.27 7.22 19.42 13.01 26.76 2.01 2.53 6.47 6.94 8.19 8.08 1.93 1.29 3 1.67 4.71 1.69 1.24 0.02 1.58 -0.06 2.66 -0.60 4.01 -1.97 4.65 -6.36 1.42 -9.58 -1.13 -1.13 -2.40 -1.82 -5.40 -2.92 -5.93 -2.17 -8.32 -4.11 -10.52 -8.49 -0.81 -1.59 -0.98 -2.12 -1.07 -3.22 -0.09 -1.29 -0.08 -1.31 0.58 -1.97 0.38 -0.38 0.84 -0.66 1.09 -0.66 0.69 0 1.58 0.64 2.23 1.63 0.94 1.37 1.89 2.31 2.38 2.31 0.51 0 0.47 0.24 0.51 -3.38 0.02 -2.66 0.06 -2.98 0.45 -3.75 0.99 -1.89 2.66 -3 4.56 -3 3.32 0 8.44 5.12 11.51 11.51 1.91 4.03 2.70 7.13 2.85 11.46 0.19 5.59 -0.81 8.96 -4.20 14.27 -2.40 3.73 -3.06 5.42 -3.06 7.86 0 1.91 0.39 3.22 1.88 6.19 2.96 5.96 8.34 13.46 16.65 23.14 7.57 8.83 10.11 10.80 15.17 11.76 1.41 0.26 2.51 0.28 7.74 0.19 4.89 -0.09 6.32 -0.08 7.22 0.13 0.62 0.15 1.26 0.28 1.41 0.30 0.15 0 -1.20 -0.77 -3 -1.73z m54.38 -12.73 c3.90 -0.96 7.33 -4.57 10.05 -10.59 0.45 -0.99 0.75 -1.89 0.69 -1.99 -0.17 -0.26 -5.29 0.02 -9.34 0.52 -4.29 0.54 -5.83 0.86 -12.30 2.47 l-5.01 1.26 0.88 0.39 c0.98 0.45 1.99 1.52 2.40 2.49 0.15 0.36 0.32 1.24 0.38 1.97 l0.11 1.31 1.52 0.71 c3.49 1.63 7.57 2.19 10.61 1.44z m-14.63 -3.24 c0 -0.66 -0.64 -1.86 -1.24 -2.33 -0.28 -0.22 -0.77 -0.39 -1.11 -0.39 -0.81 0 -1.82 0.38 -1.73 0.64 0.06 0.21 3.66 2.55 3.94 2.55 0.08 0 0.13 -0.21 0.13 -0.47z m-32.72 -32.72 c5.81 -1.09 11.10 -3.88 15.43 -8.16 2.23 -2.21 2.61 -2.72 1.99 -2.72 -0.41 0 -0.30 -0.24 1.01 -2.08 1.31 -1.88 2.04 -3.06 1.80 -2.96 -0.09 0.04 -0.88 0.45 -1.76 0.90 -0.88 0.47 -2.40 1.14 -3.38 1.54 -1.58 0.62 -1.82 0.68 -2.17 0.45 -0.36 -0.22 -0.60 -0.19 -1.86 0.21 -2.01 0.64 -6.45 1.50 -9.47 1.84 -1.39 0.17 -4.78 0.38 -7.52 0.49 -2.76 0.09 -5.66 0.28 -6.47 0.39 -3.90 0.52 -7.29 1.52 -10.29 3.02 -2.64 1.31 -2.66 1.35 -0.84 1.63 2.04 0.30 3.77 0.90 7.69 2.64 5.87 2.63 8.32 3.24 12.38 3.09 1.29 -0.04 2.85 -0.17 3.47 -0.28z m49.13 -3.19 c1.97 -0.94 3.15 -2.66 2.17 -3.19 -1.05 -0.54 -3.66 0.04 -4.14 0.92 -0.32 0.62 -0.22 1.80 0.21 2.34 0.21 0.26 0.43 0.49 0.49 0.49 0.06 0 0.62 -0.24 1.27 -0.56z m-72.47 -5.51 c4.48 -2.29 8.85 -3.22 16.31 -3.49 7.33 -0.26 10.82 -0.66 15.26 -1.73 2.16 -0.51 2.38 -0.60 2.08 -0.82 -0.43 -0.32 -0.45 -0.30 0.94 -0.71 1.56 -0.49 4.78 -1.88 6.47 -2.81 l1.41 -0.77 -2.57 -0.13 c-2.98 -0.17 -6.28 -0.64 -10.14 -1.48 -2.55 -0.54 -2.74 -0.62 -2.47 -0.92 0.24 -0.28 0.02 -0.38 -3.09 -1.20 -5.44 -1.42 -6.86 -1.67 -9.84 -1.69 -1.93 0 -2.91 0.09 -3.66 0.32 -3.30 0.99 -6.68 4.37 -10.48 10.44 -1.27 2.03 -3 5.34 -3.30 6.36 l-0.13 0.43 0.81 -0.49 c0.45 -0.28 1.54 -0.86 2.42 -1.31z m99.13 -29.85 c5.64 -1.16 9.26 -5.72 10.91 -13.74 0.22 -1.07 0.36 -1.99 0.32 -2.04 -0.06 -0.04 -0.82 0.60 -1.73 1.44 -4.26 4.03 -9.43 7.18 -14.06 8.57 -2.17 0.64 -6 0.75 -7.43 0.21 -0.96 -0.38 -2.14 -1.52 -2.33 -2.29 -0.56 -2.23 2.16 -4.14 4.05 -2.85 1.11 0.73 1.41 1.33 1.41 2.70 l0 1.22 1.24 -0.11 c2.87 -0.26 6.75 -1.84 10.14 -4.11 1.93 -1.29 5.04 -3.73 5.68 -4.44 l0.38 -0.43 -0.47 0.11 c-5.34 1.18 -5.91 1.26 -13.88 2.03 -3.86 0.38 -6.96 1.39 -9.54 3.17 -1.48 0.99 -3.69 3.21 -4.69 4.65 l-0.75 1.11 1.20 0.13 c1.73 0.17 3.99 0.86 7.97 2.44 4.18 1.65 5.06 1.95 6.81 2.27 1.84 0.34 3.08 0.34 4.76 -0.02z m-69.97 -5.04 c0.71 -0.15 1.74 -0.49 2.29 -0.75 0.99 -0.51 2.12 -1.59 2.12 -2.06 0 -0.15 -0.30 -0.62 -0.68 -1.01 -0.81 -0.92 -2.19 -1.42 -3.30 -1.26 -1.73 0.28 -3.67 1.78 -4.44 3.39 -0.56 1.20 -0.52 1.74 0.13 1.84 1.13 0.17 2.64 0.11 3.88 -0.15z m-6.94 -3.13 c0.51 -1.27 1.67 -2.66 2.94 -3.53 0.66 -0.45 1.01 -0.75 0.81 -0.68 -4.09 1.52 -8.25 2.96 -9.28 3.22 -0.71 0.19 -1.31 0.39 -1.31 0.45 0 0.28 3.28 2.03 5.16 2.72 l1.13 0.43 0.11 -0.92 c0.08 -0.51 0.26 -1.27 0.45 -1.71z m66.28 0.81 c0.28 -0.56 0.22 -1.05 -0.21 -1.59 -0.47 -0.58 -1.11 -0.64 -1.58 -0.11 -0.49 0.52 -0.21 1.26 0.66 1.71 0.81 0.45 0.88 0.45 1.13 0z m-73.09 -1.84 c0.21 -0.26 0.15 -0.28 -0.60 -0.15 -1.37 0.22 -1.46 0.36 -0.64 0.92 l0.73 0.49 0.13 -0.49 c0.08 -0.26 0.22 -0.60 0.38 -0.77z m58.39 -17.72 c-0.06 -0.24 -0.19 -2.42 -0.30 -4.84 -0.45 -9.38 -1.54 -13.89 -5.04 -20.77 -1.95 -3.81 -7.14 -12.23 -7.54 -12.23 -0.09 0 -0.17 0.71 -0.17 1.59 0 0.86 -0.13 3.04 -0.30 4.82 -0.75 8.12 0.26 13.86 3.67 20.87 1.56 3.21 2.81 5.29 4.52 7.50 1.29 1.69 2.89 3.54 2.76 3.19 -0.04 -0.09 -0.38 -0.82 -0.75 -1.59 -0.84 -1.80 -1.88 -4.54 -2.49 -6.68 -0.60 -2.06 -1.58 -6.82 -1.73 -8.42 -0.11 -1.14 -0.09 -1.22 0.36 -1.42 0.36 -0.15 0.58 -0.15 0.86 0 0.41 0.22 0.43 0.30 0.79 2.96 0.26 1.95 1.09 5.36 1.97 8.14 1.01 3.15 3.81 8.85 3.39 6.88z m18.45 -11.01 c4.11 -0.71 7.95 -2.23 11.25 -4.43 1.88 -1.24 5.81 -5.19 7.37 -7.41 1.58 -2.21 3.67 -6.39 4.54 -9.04 0.66 -1.99 1.31 -4.89 1.46 -6.56 0.08 -0.79 0.04 -0.90 -0.28 -0.90 -0.21 0 -1.35 0.60 -2.55 1.35 -3.19 1.95 -7.35 3.88 -11.19 5.21 -4.14 1.42 -7.03 2.79 -9.02 4.28 -1.88 1.41 -4.56 4.20 -5.76 6 -1.86 2.78 -3.38 6.66 -3.75 9.56 l-0.09 0.79 0.96 -0.84 c3.77 -3.32 5.78 -4.91 10.44 -8.25 3.62 -2.59 6.36 -4.82 8.06 -6.54 1.24 -1.26 1.88 -1.54 2.40 -1.01 0.54 0.54 0.22 1.05 -1.78 2.94 -2.61 2.42 -3.53 3.15 -8.21 6.49 -4.28 3.04 -7.72 5.76 -9.75 7.69 l-1.31 1.24 2.53 -0.09 c1.39 -0.06 3.51 -0.26 4.69 -0.47z"/>
 </g>
 <g fill="#D2A078">
  <path d="M145.03 146.04 c-1.93 -0.26 -3.88 -0.84 -5.70 -1.69 l-1.61 -0.75 -0.02 -1.26 c0 -0.69 -0.15 -1.56 -0.30 -1.93 -0.45 -1.03 -1.56 -2.16 -2.49 -2.55 -0.73 -0.30 -0.84 -0.41 -0.84 -0.90 l0 -0.58 5.03 -1.26 c6.47 -1.61 8.01 -1.93 12.32 -2.47 3.96 -0.51 10.14 -0.79 10.57 -0.49 0.36 0.22 0.09 1.13 -0.94 3.38 -2.70 5.83 -5.94 9.23 -9.82 10.27 -1.24 0.34 -4.54 0.45 -6.19 0.22z"/>
  <path d="M134.06 134.29 c0 -0.36 0.62 -2.19 0.96 -2.85 0.34 -0.62 0.71 -0.88 3.97 -2.49 4.18 -2.10 5.27 -2.51 8.94 -3.51 3.04 -0.81 4.31 -1.27 5.76 -2.06 0.92 -0.52 1.01 -0.54 1.78 -0.30 3.26 0.98 6.15 3.83 6.62 6.51 l0.13 0.68 -3.92 0.11 c-2.66 0.06 -5.03 0.26 -7.46 0.60 -4.43 0.60 -6.04 0.92 -11.63 2.34 -4.44 1.13 -5.16 1.26 -5.16 0.98z"/>
  <path d="M126 99.94 c-1.27 -0.13 -3.19 -0.52 -3.19 -0.66 0 -0.04 0.52 -0.84 1.18 -1.82 0.64 -0.96 2.01 -3.19 3.04 -4.93 1.76 -3.02 1.97 -3.30 3.94 -5.16 4.63 -4.41 6.07 -6.09 6.92 -8.14 0.34 -0.84 0.39 -1.31 0.38 -3.77 -0.02 -2.49 -0.09 -3.06 -0.58 -4.97 -0.32 -1.18 -0.86 -2.94 -1.22 -3.88 -0.36 -0.96 -0.62 -1.78 -0.56 -1.84 0.26 -0.26 0.64 -0.02 1.16 0.77 3.47 5.01 5.27 11.87 4.69 17.83 -0.75 7.89 -4.74 14.31 -9.94 15.96 -2.49 0.79 -3.17 0.86 -5.81 0.60z"/>
  <path d="M120.09 98.23 c-1.44 -0.54 -4.13 -1.99 -4.05 -2.16 0.04 -0.09 0.82 -0.47 1.78 -0.84 1.95 -0.77 3.90 -1.73 5.64 -2.79 1.07 -0.66 1.97 -0.96 1.97 -0.66 0 0.17 -2.74 4.50 -3.58 5.64 l-0.82 1.16 -0.94 -0.36z"/>
  <path d="M112.86 94.09 c-0.96 -0.69 -3.62 -3.34 -5.01 -4.95 -1.46 -1.73 -1.24 -1.80 2.81 -0.94 4.69 0.98 6.75 1.26 10.65 1.39 l3.47 0.13 -1.69 0.99 c-2.96 1.74 -8.04 3.97 -9.06 3.97 -0.19 0 -0.73 -0.26 -1.18 -0.60z"/>
  <path d="M118.41 87.73 c-2.78 -0.28 -6.15 -0.90 -10.33 -1.97 l-3.96 -0.99 -1.31 -1.37 c-0.73 -0.75 -1.58 -1.67 -1.88 -2.03 -0.90 -1.05 -3.99 -5.29 -3.99 -5.46 0 -0.30 0.73 -0.17 2.16 0.39 6.60 2.63 17.85 4.35 22.74 3.49 0.96 -0.17 2.27 -0.47 2.91 -0.69 2.72 -0.90 5.53 -3.15 6.45 -5.14 1.35 -2.96 -0.73 -5.72 -4.31 -5.72 -1.20 0 -2.33 0.24 -5.47 1.24 -3.24 0.99 -5.63 1.22 -8.91 0.82 -1.69 -0.21 -3.88 -0.75 -5.03 -1.24 l-0.69 -0.28 0.45 -0.38 c0.26 -0.21 0.71 -0.36 1.14 -0.36 1.07 0 3.47 -0.68 4.71 -1.33 3.28 -1.76 3.67 -5.18 0.82 -7.28 -1.71 -1.24 -4.44 -1.58 -6.49 -0.79 -2.94 1.13 -5.23 4.01 -5.23 6.60 l0 0.77 -0.62 -0.13 c-1.73 -0.38 -6.17 -2.49 -6.58 -3.13 -0.15 -0.26 -0.11 -0.49 0.13 -0.96 0.28 -0.51 0.52 -0.68 1.29 -0.88 0.52 -0.13 3.62 -1.20 6.88 -2.38 9.34 -3.38 10.82 -3.75 15.09 -3.92 3.49 -0.13 4.86 0.11 7.41 1.35 1.52 0.73 2.06 1.13 3.41 2.49 3.38 3.38 5.81 8.16 6.94 13.57 0.52 2.49 0.54 5.32 0.08 6.51 -0.56 1.37 -1.52 2.68 -3.24 4.44 -2.63 2.68 -4.20 3.94 -5.32 4.28 -2.08 0.60 -5.79 0.77 -9.24 0.45z"/>
  <path d="M113.72 77.98 c-4.41 -0.56 -8.21 -1.39 -11.72 -2.51 -2.40 -0.79 -6.30 -2.42 -6.79 -2.85 -0.82 -0.73 -1.74 -4.50 -1.56 -6.38 0.11 -1.35 0.24 -1.74 0.52 -1.74 0.11 0 1.01 0.41 1.99 0.92 1.93 0.98 3.81 1.71 5.46 2.08 0.81 0.19 1.22 0.43 1.91 1.11 2.29 2.27 5.85 3.51 10.78 3.71 3.09 0.13 4.44 -0.08 8.27 -1.27 4.03 -1.27 5.94 -1.26 6.86 0.06 0.41 0.58 0.38 1.80 -0.08 2.53 -0.92 1.50 -3.28 3.13 -5.72 3.94 -1.37 0.45 -1.80 0.51 -5.06 0.54 -1.95 0.02 -4.14 -0.04 -4.88 -0.13z"/>
  <path d="M104.53 66.41 c-0.54 -0.13 -0.56 -0.17 -0.51 -1.14 0.19 -3.41 4.05 -6.04 7.48 -5.06 1.07 0.30 2.21 1.27 2.49 2.16 0.45 1.35 -0.98 2.91 -3.34 3.66 -1.33 0.41 -5.03 0.66 -6.13 0.39z"/>
  <path d="M102.15 56.76 c0.58 -0.62 2.96 -1.48 3.90 -1.41 0.66 0.06 0.51 0.13 -1.59 0.90 -1.27 0.47 -2.42 0.88 -2.53 0.92 -0.11 0.04 -0.02 -0.15 0.22 -0.41z"/>
 </g>
</svg>
